<?xml version="1.0" encoding="utf-8"?>
<!-- Generator: Adobe Illustrator 27.5.0, SVG Export Plug-In . SVG Version: 6.00 Build 0)  -->
<svg version="1.1" xmlns="http://www.w3.org/2000/svg" xmlns:xlink="http://www.w3.org/1999/xlink" x="0px" y="0px" width="80px"
	 height="93px" viewBox="0 0 80 93" enable-background="new 0 0 80 93" xml:space="preserve">
<g id="outline">
	<g>
		<polygon fill="#FFFFFF" points="1,69.02 1,23.98 40,1.46 79,23.98 79,69.02 40,91.54 		"/>
		<path fill="#6A91C3" d="M40,2.62l38,21.94v43.88L40,90.38L2,68.44V24.56L40,2.62 M40,0.31L0,23.41v46.19l40,23.1l40-23.1V23.41
			L40,0.31L40,0.31z"/>
	</g>
</g>
<g id="logo">
	<defs>
		<polygon id="SVGID_1_" points="78,68.44 78,24.56 40,2.62 2,24.56 2,68.44 40,90.38 		"/>
	</defs>
	<clipPath id="SVGID_00000000187662105519610640000000284659718211862938_">
		<use xlink:href="#SVGID_1_"  overflow="visible"/>
	</clipPath>
	
		<linearGradient id="SVGID_00000011753319673990884180000016871711365732891813_" gradientUnits="userSpaceOnUse" x1="0.2482" y1="131.5301" x2="124.8475" y2="68.1422">
		<stop  offset="0.2347" style="stop-color:#ABD9E9;stop-opacity:0.4"/>
		<stop  offset="0.4432" style="stop-color:#8AB8D8;stop-opacity:0.6144"/>
		<stop  offset="0.8182" style="stop-color:#4575B4"/>
	</linearGradient>
	
		<polygon opacity="0.69" clip-path="url(#SVGID_00000000187662105519610640000000284659718211862938_)" fill="url(#SVGID_00000011753319673990884180000016871711365732891813_)" points="
		125.67,129.07 43.16,176.71 -14.12,77.49 68.39,29.85 	"/>
	
		<linearGradient id="SVGID_00000042720204520485961300000004550962843186797748_" gradientUnits="userSpaceOnUse" x1="0.2482" y1="141.5301" x2="124.8475" y2="78.1422">
		<stop  offset="0.2347" style="stop-color:#ABD9E9;stop-opacity:0.4"/>
		<stop  offset="0.4432" style="stop-color:#8AB8D8;stop-opacity:0.6144"/>
		<stop  offset="0.8182" style="stop-color:#4575B4"/>
	</linearGradient>
	
		<polygon opacity="0.69" clip-path="url(#SVGID_00000000187662105519610640000000284659718211862938_)" fill="url(#SVGID_00000042720204520485961300000004550962843186797748_)" points="
		125.67,139.07 43.16,186.71 -14.12,87.49 68.39,39.85 	"/>
	
		<linearGradient id="SVGID_00000021802233324011596710000005327345430561287600_" gradientUnits="userSpaceOnUse" x1="0.2482" y1="151.5301" x2="124.8475" y2="88.1422">
		<stop  offset="0.2347" style="stop-color:#ABD9E9;stop-opacity:0.4"/>
		<stop  offset="0.4432" style="stop-color:#8AB8D8;stop-opacity:0.6144"/>
		<stop  offset="0.8182" style="stop-color:#4575B4"/>
	</linearGradient>
	
		<polygon opacity="0.69" clip-path="url(#SVGID_00000000187662105519610640000000284659718211862938_)" fill="url(#SVGID_00000021802233324011596710000005327345430561287600_)" points="
		125.67,149.07 43.16,196.71 -14.12,97.49 68.39,49.85 	"/>
	
		<linearGradient id="SVGID_00000000907287727948719410000010338508878466223525_" gradientUnits="userSpaceOnUse" x1="0.2482" y1="161.5301" x2="124.8475" y2="98.1422">
		<stop  offset="0.2347" style="stop-color:#ABD9E9;stop-opacity:0.4"/>
		<stop  offset="0.4432" style="stop-color:#8AB8D8;stop-opacity:0.6144"/>
		<stop  offset="0.8182" style="stop-color:#4575B4"/>
	</linearGradient>
	
		<polygon opacity="0.69" clip-path="url(#SVGID_00000000187662105519610640000000284659718211862938_)" fill="url(#SVGID_00000000907287727948719410000010338508878466223525_)" points="
		125.67,159.07 43.16,206.71 -14.12,107.49 68.39,59.85 	"/>
	
		<linearGradient id="SVGID_00000078761506498642314770000008757406752460014980_" gradientUnits="userSpaceOnUse" x1="0.2482" y1="171.5301" x2="124.8475" y2="108.1422">
		<stop  offset="0.2347" style="stop-color:#ABD9E9;stop-opacity:0.4"/>
		<stop  offset="0.4432" style="stop-color:#8AB8D8;stop-opacity:0.6144"/>
		<stop  offset="0.8182" style="stop-color:#4575B4"/>
	</linearGradient>
	
		<polygon opacity="0.69" clip-path="url(#SVGID_00000000187662105519610640000000284659718211862938_)" fill="url(#SVGID_00000078761506498642314770000008757406752460014980_)" points="
		125.67,169.07 43.16,216.71 -14.12,117.49 68.39,69.85 	"/>
	<g opacity="0.89" clip-path="url(#SVGID_00000000187662105519610640000000284659718211862938_)">
		<g>
			<g>
				<path fill="#4575B4" d="M8.97,64.5c-0.43-0.75-0.32-1.56,0.27-2.48l-0.04-0.07c-0.66-0.05-1.3-0.32-1.74-1.08
					c-0.36-0.62-0.33-1.51,0.03-2.3l-0.04-0.07c-0.91-0.06-1.97-0.56-2.58-1.61c-1.3-2.26-0.02-4.41,1.98-5.56
					c0.51-0.29,1.06-0.52,1.58-0.62l3.39-1.96l1.3,2.26l-1.31,0.76c0.2,0.18,0.48,0.5,0.69,0.86c1.24,2.15,0.11,3.97-1.93,5.15
					c-0.29,0.17-0.64,0.32-1.09,0.46c-0.09,0.27-0.06,0.4,0.09,0.66c0.23,0.4,0.68,0.33,1.59-0.19l1.37-0.79
					c2.28-1.31,3.99-1.38,4.95,0.3c1.13,1.97-0.13,4.49-3.37,6.36C12.02,65.74,9.92,66.14,8.97,64.5z M9.74,54.05
					c-0.48-0.84-1.12-1.01-1.7-0.67c-0.58,0.34-0.75,0.97-0.27,1.81c0.5,0.87,1.14,1.04,1.72,0.71
					C10.07,55.56,10.24,54.92,9.74,54.05z M14.8,60.45c-0.27-0.47-0.75-0.29-1.54,0.16l-0.71,0.41c-0.73,0.42-1.08,0.57-1.37,0.65
					c-0.09,0.34-0.1,0.59,0.05,0.84c0.34,0.58,1.21,0.42,2.27-0.19C14.51,61.73,15.09,60.96,14.8,60.45z"/>
				<path fill="#4575B4" d="M18,59.28c-0.43-0.75-0.32-1.56,0.27-2.48l-0.04-0.07c-0.66-0.05-1.3-0.32-1.74-1.08
					c-0.36-0.62-0.33-1.51,0.03-2.3l-0.04-0.07c-0.91-0.06-1.97-0.56-2.58-1.62c-1.3-2.26-0.02-4.41,1.98-5.56
					c0.51-0.29,1.06-0.52,1.58-0.62l3.39-1.96l1.3,2.26l-1.31,0.76c0.2,0.18,0.48,0.5,0.69,0.86c1.24,2.15,0.11,3.97-1.93,5.15
					C19.3,52.7,18.95,52.86,18.5,53c-0.09,0.27-0.06,0.4,0.09,0.65c0.23,0.4,0.68,0.34,1.59-0.19l1.37-0.79
					c2.28-1.31,3.99-1.38,4.95,0.3c1.13,1.97-0.13,4.49-3.37,6.36C21.05,60.53,18.95,60.92,18,59.28z M18.77,48.84
					c-0.48-0.84-1.12-1.01-1.7-0.67c-0.58,0.34-0.75,0.97-0.27,1.81c0.5,0.87,1.14,1.04,1.72,0.71
					C19.1,50.34,19.27,49.71,18.77,48.84z M23.83,55.24c-0.27-0.47-0.75-0.29-1.54,0.16l-0.71,0.41c-0.73,0.42-1.08,0.57-1.37,0.65
					c-0.09,0.34-0.1,0.59,0.05,0.84c0.34,0.58,1.21,0.42,2.27-0.19C23.54,56.52,24.12,55.75,23.83,55.24z"/>
				<path fill="#4575B4" d="M29.06,49.59l-0.07,0.04l0.31,1.13l-2.44,1.41L19.54,39.5l3.13-1.81l1.7,2.95L25.06,42
					c0.3-0.95,0.91-1.74,1.71-2.2c2.15-1.24,4.6-0.23,6.21,2.56c1.82,3.15,0.99,6.01-0.94,7.12C31.25,49.93,30.22,50,29.06,49.59z
					 M29.82,44.26c-0.86-1.49-1.66-1.86-2.5-1.38c-0.47,0.27-0.73,0.67-0.86,1.37l1.93,3.35c0.55,0.12,1.02,0,1.42-0.24
					C30.54,46.94,30.82,46,29.82,44.26z"/>
				<path fill="#4575B4" d="M34.66,43.4l-5.47-9.47l3.13-1.81l5.53,9.58c0.36,0.62,0.75,0.63,0.97,0.51
					c0.11-0.06,0.18-0.11,0.31-0.23l1.69,2.08c-0.24,0.33-0.69,0.74-1.38,1.14C37.33,46.42,35.84,45.44,34.66,43.4z"/>
				<path fill="#4575B4" d="M37.92,39.72c-1.7-2.95-0.61-6.01,1.62-7.29c2.7-1.56,5.11-0.33,6.51,2.11
					c0.32,0.55,0.56,1.13,0.63,1.38l-5.19,3c0.92,0.92,1.93,0.83,2.95,0.24c0.62-0.36,1.1-0.88,1.54-1.62l2.09,1.27
					c-0.58,1.26-1.69,2.38-2.71,2.97C42.72,43.31,39.67,42.74,37.92,39.72z M42.97,35.35c-0.4-0.69-1.05-1.14-2-0.6
					c-0.69,0.4-1.04,1.14-0.7,2.15L42.97,35.35z"/>
				<path fill="#4575B4" d="M44.43,29.89l2.55-1.47l0.85,0.97l0.07-0.04c0.33-1.11,0.88-2.26,2.12-2.97c2-1.16,3.68-0.18,4.99,2.07
					l3.24,5.61l-3.13,1.81l-3.01-5.21c-0.67-1.17-1.13-1.29-1.75-0.93c-0.58,0.34-0.76,0.78-0.98,1.49l3.45,5.97L49.69,39
					L44.43,29.89z"/>
				<path fill="#4575B4" d="M56.35,29.08c-1.72-2.99-0.9-5.84,0.96-6.92c0.98-0.57,1.78-0.54,2.64-0.31l-0.87-1.25l-1.7-2.95
					l3.13-1.81l7.32,12.67L65.28,30l-0.7-0.71l-0.07,0.04c-0.26,0.98-0.88,1.92-1.68,2.38C60.56,33.01,58.05,32.03,56.35,29.08z
					 M62.97,27.35L61.04,24c-0.55-0.12-1.09,0.05-1.49,0.28c-0.66,0.38-0.94,1.32-0.01,2.92c0.95,1.64,1.81,1.96,2.65,1.48
					C62.66,28.4,62.94,28.05,62.97,27.35z"/>
			</g>
		</g>
	</g>
</g>
</svg>
