<?xml version="1.0" encoding="utf-8"?>
<!-- Generator: Adobe Illustrator 27.5.0, SVG Export Plug-In . SVG Version: 6.00 Build 0)  -->
<svg version="1.1" xmlns="http://www.w3.org/2000/svg" xmlns:xlink="http://www.w3.org/1999/xlink" x="0px" y="0px" width="80px"
	 height="93px" viewBox="0 0 80 93" enable-background="new 0 0 80 93" xml:space="preserve">
<g id="outline">
	<g>
		<polygon fill="#FFFFFF" points="1,69.02 1,23.98 40,1.46 79,23.98 79,69.02 40,91.54 		"/>
		<path fill="#6A91C3" d="M40,2.62l38,21.94v43.88L40,90.38L2,68.44V24.56L40,2.62 M40,0.31L0,23.41v46.19l40,23.1l40-23.1V23.41
			L40,0.31L40,0.31z"/>
	</g>
</g>
<g id="logo">
	<defs>
		<polygon id="SVGID_1_" points="78,68.44 78,24.56 40,2.62 2,24.56 2,68.44 40,90.38 		"/>
	</defs>
	<clipPath id="SVGID_00000179615497542876454610000016389945784945833139_">
		<use xlink:href="#SVGID_1_"  overflow="visible"/>
	</clipPath>
	
		<linearGradient id="SVGID_00000103967108948749010740000014403780869049686429_" gradientUnits="userSpaceOnUse" x1="-6.7742" y1="135.7527" x2="117.8251" y2="72.3648" gradientTransform="matrix(1.1838 0.2886 -0.4725 0.9687 58.7066 -11.2058)">
		<stop  offset="0.2347" style="stop-color:#ABD9E9;stop-opacity:0.4"/>
		<stop  offset="0.4432" style="stop-color:#8AB8D8;stop-opacity:0.6144"/>
		<stop  offset="0.8182" style="stop-color:#4575B4"/>
	</linearGradient>
	
		<polygon opacity="0.69" clip-path="url(#SVGID_00000179615497542876454610000016389945784945833139_)" fill="url(#SVGID_00000103967108948749010740000014403780869049686429_)" points="
		136.19,152.15 16,174.48 -4.94,61.85 115.26,39.51 	"/>
	
		<linearGradient id="SVGID_00000029746844356074609650000010527661079382236844_" gradientUnits="userSpaceOnUse" x1="-6.4605" y1="136.7068" x2="118.1389" y2="73.3189" gradientTransform="matrix(1.0117 0.3205 -0.3731 0.9502 46.9819 -9.0268)">
		<stop  offset="0.2347" style="stop-color:#ABD9E9;stop-opacity:0.4"/>
		<stop  offset="0.4432" style="stop-color:#8AB8D8;stop-opacity:0.6144"/>
		<stop  offset="0.8182" style="stop-color:#4575B4"/>
	</linearGradient>
	
		<polygon opacity="0.69" clip-path="url(#SVGID_00000179615497542876454610000016389945784945833139_)" fill="url(#SVGID_00000029746844356074609650000010527661079382236844_)" points="
		117.25,156.67 16,175.48 -4.94,62.85 96.31,44.03 	"/>
	
		<linearGradient id="SVGID_00000116234596940746902920000011134334532886950536_" gradientUnits="userSpaceOnUse" x1="-8.441" y1="141.0386" x2="116.1584" y2="77.6507" gradientTransform="matrix(0.9521 0.3316 -0.3387 0.9438 42.9156 -8.2711)">
		<stop  offset="0.2347" style="stop-color:#ABD9E9;stop-opacity:0.4"/>
		<stop  offset="0.4432" style="stop-color:#8AB8D8;stop-opacity:0.6144"/>
		<stop  offset="0.8182" style="stop-color:#4575B4"/>
	</linearGradient>
	
		<polygon opacity="0.69" clip-path="url(#SVGID_00000179615497542876454610000016389945784945833139_)" fill="url(#SVGID_00000116234596940746902920000011134334532886950536_)" points="
		107.36,161.31 12.66,178.91 -8.27,66.28 86.42,48.68 	"/>
	
		<linearGradient id="SVGID_00000118391814726906568370000013423090350589165201_" gradientUnits="userSpaceOnUse" x1="-9.7743" y1="147.2674" x2="114.825" y2="83.8795" gradientTransform="matrix(0.9315 0.3355 -0.3268 0.9416 41.355 -7.9811)">
		<stop  offset="0.2347" style="stop-color:#ABD9E9;stop-opacity:0.4"/>
		<stop  offset="0.4432" style="stop-color:#8AB8D8;stop-opacity:0.6144"/>
		<stop  offset="0.8182" style="stop-color:#4575B4"/>
	</linearGradient>
	
		<polygon opacity="0.69" clip-path="url(#SVGID_00000179615497542876454610000016389945784945833139_)" fill="url(#SVGID_00000118391814726906568370000013423090350589165201_)" points="
		101.76,167.16 9.33,184.34 -11.6,71.7 80.82,54.53 	"/>
	
		<linearGradient id="SVGID_00000143602059858851993550000012502215511245434254_" gradientUnits="userSpaceOnUse" x1="-10.7744" y1="154.439" x2="113.825" y2="91.0511" gradientTransform="matrix(0.9428 0.3333 -0.3333 0.9428 42.2387 -8.1453)">
		<stop  offset="0.2347" style="stop-color:#ABD9E9;stop-opacity:0.4"/>
		<stop  offset="0.4432" style="stop-color:#8AB8D8;stop-opacity:0.6144"/>
		<stop  offset="0.8182" style="stop-color:#4575B4"/>
	</linearGradient>
	
		<polygon opacity="0.69" clip-path="url(#SVGID_00000179615497542876454610000016389945784945833139_)" fill="url(#SVGID_00000143602059858851993550000012502215511245434254_)" points="
		99.67,173.36 6,190.77 -14.94,78.13 78.74,60.72 	"/>
	
		<linearGradient id="SVGID_00000094587239435966929570000011419957230227726251_" gradientUnits="userSpaceOnUse" x1="-11.4411" y1="162.5534" x2="113.1583" y2="99.1655" gradientTransform="matrix(0.969 0.3285 -0.3485 0.9456 44.5571 -8.5762)">
		<stop  offset="0.2347" style="stop-color:#ABD9E9;stop-opacity:0.4"/>
		<stop  offset="0.4432" style="stop-color:#8AB8D8;stop-opacity:0.6144"/>
		<stop  offset="0.8182" style="stop-color:#4575B4"/>
	</linearGradient>
	
		<polygon opacity="0.69" clip-path="url(#SVGID_00000179615497542876454610000016389945784945833139_)" fill="url(#SVGID_00000094587239435966929570000011419957230227726251_)" points="
		99.22,180.25 2.66,198.2 -18.27,85.56 78.29,67.62 	"/>
	
		<linearGradient id="SVGID_00000103255101824764788680000005389682304668180397_" gradientUnits="userSpaceOnUse" x1="-17.5357" y1="175.3149" x2="107.0637" y2="111.927" gradientTransform="matrix(0.9952 0.3236 -0.3636 0.9484 47.5791 -9.1378)">
		<stop  offset="0.2347" style="stop-color:#ABD9E9;stop-opacity:0.4"/>
		<stop  offset="0.4432" style="stop-color:#8AB8D8;stop-opacity:0.6144"/>
		<stop  offset="0.8182" style="stop-color:#4575B4"/>
	</linearGradient>
	
		<polygon opacity="0.69" clip-path="url(#SVGID_00000179615497542876454610000016389945784945833139_)" fill="url(#SVGID_00000103255101824764788680000005389682304668180397_)" points="
		92.1,189.72 -7.34,208.2 -28.27,95.56 71.17,77.08 	"/>
	<g clip-path="url(#SVGID_00000179615497542876454610000016389945784945833139_)">
		<g opacity="0.89">
			<g>
				<g>
					<path fill="#4575B4" stroke="#FFFFFF" stroke-width="1.0206" stroke-miterlimit="10" d="M5.81,60.2l1.04-2.56
						c0.93,0.45,1.93,0.76,2.88,0.58c1.25-0.23,2.02-1.02,2.2-2.38l0.23-1.88c-0.73,1.12-1.76,1.85-2.88,2.06
						c-1.82,0.34-3.38-0.62-3.85-3.18C4.71,49,6.79,45.48,9.77,44.92c0.91-0.17,1.91,0.18,2.45,0.93l0.04-0.01l0.27-1.17l2.81-0.52
						l-0.15,10.76c-0.05,3.45-1.89,5.45-5.05,6.04C8.95,61.18,7.3,61,5.81,60.2z M11.82,51.39l0.01-3.09
						c-0.36-0.51-0.89-0.68-1.28-0.61c-1.25,0.23-2.02,1.89-1.62,4.06c0.18,0.95,0.65,1.31,1.21,1.21
						C10.75,52.84,11.45,52.49,11.82,51.39z"/>
					<path fill="#4575B4" stroke="#FFFFFF" stroke-width="1.0206" stroke-miterlimit="10" d="M16.66,58.18l1.04-2.56
						c0.93,0.45,1.93,0.76,2.88,0.58c1.25-0.23,2.02-1.02,2.2-2.38l0.23-1.88c-0.73,1.12-1.76,1.85-2.88,2.06
						c-1.82,0.34-3.38-0.62-3.86-3.17c-0.71-3.85,1.36-7.37,4.34-7.92c0.91-0.17,1.91,0.18,2.46,0.93l0.04-0.01l0.27-1.17l2.81-0.52
						L26.06,52.9c-0.05,3.45-1.9,5.45-5.05,6.04C19.8,59.16,18.15,58.98,16.66,58.18z M22.67,49.37l0.01-3.09
						c-0.36-0.51-0.89-0.68-1.28-0.61c-1.25,0.23-2.02,1.9-1.62,4.06c0.18,0.95,0.65,1.31,1.21,1.21
						C21.6,50.82,22.29,50.47,22.67,49.37z"/>
					<path fill="#4575B4" stroke="#FFFFFF" stroke-width="1.0206" stroke-miterlimit="10" d="M27.69,53.04l0.23-15.61l3.46-0.64
						l-0.06,3.28l-0.19,2.09l0.04-0.01c0.77-0.9,1.73-1.53,2.72-1.71c1.9-0.35,3.29,0.86,3.77,3.42c0.76,4.11-1.4,7.86-4.38,8.42
						c-0.91,0.17-1.87-0.19-2.41-0.94l-0.04,0.01l-0.28,1.17L27.69,53.04z M31.27,45.09l-0.05,3.81c0.32,0.52,0.84,0.69,1.28,0.61
						c1.25-0.23,2.11-2.14,1.66-4.56c-0.21-1.12-0.69-1.53-1.29-1.42C32.3,43.65,31.61,44.04,31.27,45.09z"/>
					<path fill="#4575B4" stroke="#FFFFFF" stroke-width="1.0206" stroke-miterlimit="10" d="M38.88,48.77
						c-0.08-0.43-0.12-0.87-0.1-1.5l0.16-11.88l3.46-0.64l-0.18,12.02c0,0.22,0.01,0.31,0.03,0.42c0.08,0.41,0.32,0.5,0.53,0.46
						c0.13-0.02,0.22-0.04,0.38-0.12l0.34,2.58c-0.36,0.2-0.95,0.44-1.72,0.59C40.02,51.02,39.16,50.24,38.88,48.77z"/>
					<path fill="#4575B4" stroke="#FFFFFF" stroke-width="1.0206" stroke-miterlimit="10" d="M48.24,37.78
						c2.64-0.49,3.93,1.19,4.35,3.44c0.2,1.08-0.01,2.37-0.12,2.71l-5.84,1.08c0.31,1.42,1.37,1.85,2.63,1.61
						c0.6-0.11,1.28-0.59,1.69-1.03l1.61,1.94c-0.75,0.77-2.04,1.54-3.81,1.87c-2.64,0.49-4.83-0.94-5.36-3.83
						C42.65,41.59,45.35,38.31,48.24,37.78z M49.79,42.27c0.01-0.18,0.01-0.45-0.04-0.71c-0.14-0.73-0.54-1.24-1.45-1.07
						c-0.82,0.15-1.57,0.92-1.79,2.39L49.79,42.27z"/>
					<path fill="#4575B4" stroke="#FFFFFF" stroke-width="1.0206" stroke-miterlimit="10" d="M53.69,37.03l2.81-0.52l0.26,1.38
						l0.09-0.02c0.83-1.05,1.9-2.05,3.28-2.31c1.77-0.33,2.73,0.48,3.07,2.34c0.09,0.48,0.13,1.05,0.12,1.59l-0.09,6.95l-3.46,0.64
						l0.09-6.5c0.01-0.41,0.04-0.72,0-0.98c-0.11-0.61-0.51-0.84-1.08-0.74c-0.6,0.11-1.05,0.6-1.68,1.56l-0.05,7.17l-3.46,0.64
						L53.69,37.03z"/>
					<path fill="#4575B4" stroke="#FFFFFF" stroke-width="1.0206" stroke-miterlimit="10" d="M70.96,32.7l0.02-3.27l3.46-0.64
						L74.21,44.4l-2.81,0.52l-0.25-1.34l-0.04,0.01c-0.77,1.17-1.91,2.01-2.95,2.2c-1.9,0.35-3.29-0.86-3.77-3.42
						c-0.76-4.11,1.4-7.86,4.38-8.42c0.91-0.17,1.77,0.16,2.3,0.83l0.04-0.01L70.96,32.7z M70.83,40.91l0.05-3.59
						c-0.36-0.51-0.93-0.68-1.32-0.6c-1.25,0.23-2.11,2.14-1.66,4.56c0.21,1.12,0.69,1.53,1.29,1.41
						C69.75,42.59,70.44,42.19,70.83,40.91z"/>
				</g>
			</g>
		</g>
		<g>
			<g>
				<g>
					<path fill="#4575B4" d="M5.81,60.2l1.04-2.56c0.93,0.45,1.93,0.76,2.88,0.58c1.25-0.23,2.02-1.02,2.2-2.38l0.23-1.88
						c-0.73,1.12-1.76,1.85-2.88,2.06c-1.82,0.34-3.38-0.62-3.85-3.18C4.71,49,6.79,45.48,9.77,44.92c0.91-0.17,1.91,0.18,2.45,0.93
						l0.04-0.01l0.27-1.17l2.81-0.52l-0.15,10.76c-0.05,3.45-1.89,5.45-5.05,6.04C8.95,61.18,7.3,61,5.81,60.2z M11.82,51.39
						l0.01-3.09c-0.36-0.51-0.89-0.68-1.28-0.61c-1.25,0.23-2.02,1.89-1.62,4.06c0.18,0.95,0.65,1.31,1.21,1.21
						C10.75,52.84,11.45,52.49,11.82,51.39z"/>
					<path fill="#4575B4" d="M16.66,58.18l1.04-2.56c0.93,0.45,1.93,0.76,2.88,0.58c1.25-0.23,2.02-1.02,2.2-2.38l0.23-1.88
						c-0.73,1.12-1.76,1.85-2.88,2.06c-1.82,0.34-3.38-0.62-3.86-3.17c-0.71-3.85,1.36-7.37,4.34-7.92
						c0.91-0.17,1.91,0.18,2.46,0.93l0.04-0.01l0.27-1.17l2.81-0.52L26.06,52.9c-0.05,3.45-1.9,5.45-5.05,6.04
						C19.8,59.16,18.15,58.98,16.66,58.18z M22.67,49.37l0.01-3.09c-0.36-0.51-0.89-0.68-1.28-0.61c-1.25,0.23-2.02,1.9-1.62,4.06
						c0.18,0.95,0.65,1.31,1.21,1.21C21.6,50.82,22.29,50.47,22.67,49.37z"/>
					<path fill="#4575B4" d="M27.69,53.04l0.23-15.61l3.46-0.64l-0.06,3.28l-0.19,2.09l0.04-0.01c0.77-0.9,1.73-1.53,2.72-1.71
						c1.9-0.35,3.29,0.86,3.77,3.42c0.76,4.11-1.4,7.86-4.38,8.42c-0.91,0.17-1.87-0.19-2.41-0.94l-0.04,0.01l-0.28,1.17
						L27.69,53.04z M31.27,45.09l-0.05,3.81c0.32,0.52,0.84,0.69,1.28,0.61c1.25-0.23,2.11-2.14,1.66-4.56
						c-0.21-1.12-0.69-1.53-1.29-1.42C32.3,43.65,31.61,44.04,31.27,45.09z"/>
					<path fill="#4575B4" d="M38.88,48.77c-0.08-0.43-0.12-0.87-0.1-1.5l0.16-11.88l3.46-0.64l-0.18,12.02
						c0,0.22,0.01,0.31,0.03,0.42c0.08,0.41,0.32,0.5,0.53,0.46c0.13-0.02,0.22-0.04,0.38-0.12l0.34,2.58
						c-0.36,0.2-0.95,0.44-1.72,0.59C40.02,51.02,39.16,50.24,38.88,48.77z"/>
					<path fill="#4575B4" d="M48.24,37.78c2.64-0.49,3.93,1.19,4.35,3.44c0.2,1.08-0.01,2.37-0.12,2.71l-5.84,1.08
						c0.31,1.42,1.37,1.85,2.63,1.61c0.6-0.11,1.28-0.59,1.69-1.03l1.61,1.94c-0.75,0.77-2.04,1.54-3.81,1.87
						c-2.64,0.49-4.83-0.94-5.36-3.83C42.65,41.59,45.35,38.31,48.24,37.78z M49.79,42.27c0.01-0.18,0.01-0.45-0.04-0.71
						c-0.14-0.73-0.54-1.24-1.45-1.07c-0.82,0.15-1.57,0.92-1.79,2.39L49.79,42.27z"/>
					<path fill="#4575B4" d="M53.69,37.03l2.81-0.52l0.26,1.38l0.09-0.02c0.83-1.05,1.9-2.05,3.28-2.31
						c1.77-0.33,2.73,0.48,3.07,2.34c0.09,0.48,0.13,1.05,0.12,1.59l-0.09,6.95l-3.46,0.64l0.09-6.5c0.01-0.41,0.04-0.72,0-0.98
						c-0.11-0.61-0.51-0.84-1.08-0.74c-0.6,0.11-1.05,0.6-1.68,1.56l-0.05,7.17l-3.46,0.64L53.69,37.03z"/>
					<path fill="#4575B4" d="M70.96,32.7l0.02-3.27l3.46-0.64L74.21,44.4l-2.81,0.52l-0.25-1.34l-0.04,0.01
						c-0.77,1.17-1.91,2.01-2.95,2.2c-1.9,0.35-3.29-0.86-3.77-3.42c-0.76-4.11,1.4-7.86,4.38-8.42c0.91-0.17,1.77,0.16,2.3,0.83
						l0.04-0.01L70.96,32.7z M70.83,40.91l0.05-3.59c-0.36-0.51-0.93-0.68-1.32-0.6c-1.25,0.23-2.11,2.14-1.66,4.56
						c0.21,1.12,0.69,1.53,1.29,1.41C69.75,42.59,70.44,42.19,70.83,40.91z"/>
				</g>
			</g>
		</g>
	</g>
</g>
</svg>
