<?xml version="1.0" encoding="utf-8"?>
<!-- Generator: Adobe Illustrator 27.5.0, SVG Export Plug-In . SVG Version: 6.00 Build 0)  -->
<svg version="1.1" xmlns="http://www.w3.org/2000/svg" xmlns:xlink="http://www.w3.org/1999/xlink" x="0px" y="0px" width="80px"
	 height="93px" viewBox="0 0 80 93" enable-background="new 0 0 80 93" xml:space="preserve">
<g id="outline">
	<g>
		<polygon fill="#FFFFFF" points="1,69.02 1,23.98 40,1.46 79,23.98 79,69.02 40,91.54 		"/>
		<path fill="#6A91C3" d="M40,2.62l38,21.94v43.88L40,90.38L2,68.44V24.56L40,2.62 M40,0.31L0,23.41v46.19l40,23.1l40-23.1V23.41
			L40,0.31L40,0.31z"/>
	</g>
</g>
<g id="logo">
	<defs>
		<polygon id="SVGID_1_" points="78,68.44 78,24.56 40,2.62 2,24.56 2,68.44 40,90.38 		"/>
	</defs>
	<clipPath id="SVGID_00000120528271768748645460000012165238745619307148_">
		<use xlink:href="#SVGID_1_"  overflow="visible"/>
	</clipPath>
	
		<linearGradient id="SVGID_00000176762608039605107140000004185377965651978422_" gradientUnits="userSpaceOnUse" x1="-6.7742" y1="135.7527" x2="117.8251" y2="72.3648" gradientTransform="matrix(1.033 0.3166 -0.3854 0.9525 48.3989 -9.2902)">
		<stop  offset="0.2347" style="stop-color:#ABD9E9;stop-opacity:0.4"/>
		<stop  offset="0.4432" style="stop-color:#8AB8D8;stop-opacity:0.6144"/>
		<stop  offset="0.8182" style="stop-color:#4575B4"/>
	</linearGradient>
	
		<polygon opacity="0.69" clip-path="url(#SVGID_00000120528271768748645460000012165238745619307148_)" fill="url(#SVGID_00000176762608039605107140000004185377965651978422_)" points="
		119.59,155.23 16,174.48 -4.94,61.85 98.66,42.6 	"/>
	
		<linearGradient id="SVGID_00000089533281886350205040000002133873371571253121_" gradientUnits="userSpaceOnUse" x1="-6.3529" y1="137.0057" x2="118.2465" y2="73.6178" gradientTransform="matrix(0.9712 0.3281 -0.3497 0.9459 44.2071 -8.5111)">
		<stop  offset="0.2347" style="stop-color:#ABD9E9;stop-opacity:0.4"/>
		<stop  offset="0.4432" style="stop-color:#8AB8D8;stop-opacity:0.6144"/>
		<stop  offset="0.8182" style="stop-color:#4575B4"/>
	</linearGradient>
	
		<polygon opacity="0.69" clip-path="url(#SVGID_00000120528271768748645460000012165238745619307148_)" fill="url(#SVGID_00000089533281886350205040000002133873371571253121_)" points="
		112.79,157.81 16,175.8 -4.94,63.17 91.86,45.18 	"/>
	
		<linearGradient id="SVGID_00000053539558443891780820000012395068374744770445_" gradientUnits="userSpaceOnUse" x1="-8.441" y1="141.0386" x2="116.1584" y2="77.6507" gradientTransform="matrix(0.9749 0.3274 -0.3519 0.9463 44.5849 -8.5814)">
		<stop  offset="0.2347" style="stop-color:#ABD9E9;stop-opacity:0.4"/>
		<stop  offset="0.4432" style="stop-color:#8AB8D8;stop-opacity:0.6144"/>
		<stop  offset="0.8182" style="stop-color:#4575B4"/>
	</linearGradient>
	
		<polygon opacity="0.69" clip-path="url(#SVGID_00000120528271768748645460000012165238745619307148_)" fill="url(#SVGID_00000053539558443891780820000012395068374744770445_)" points="
		109.87,160.85 12.66,178.91 -8.27,66.28 88.94,48.21 	"/>
	
		<linearGradient id="SVGID_00000024711639895106596250000018246625035399845030_" gradientUnits="userSpaceOnUse" x1="-9.7743" y1="147.2674" x2="114.825" y2="83.8795" gradientTransform="matrix(0.9554 0.331 -0.3406 0.9442 43.2223 -8.3281)">
		<stop  offset="0.2347" style="stop-color:#ABD9E9;stop-opacity:0.4"/>
		<stop  offset="0.4432" style="stop-color:#8AB8D8;stop-opacity:0.6144"/>
		<stop  offset="0.8182" style="stop-color:#4575B4"/>
	</linearGradient>
	
		<polygon opacity="0.69" clip-path="url(#SVGID_00000120528271768748645460000012165238745619307148_)" fill="url(#SVGID_00000024711639895106596250000018246625035399845030_)" points="
		104.39,166.67 9.33,184.34 -11.6,71.7 83.46,54.04 	"/>
	
		<linearGradient id="SVGID_00000175318908904409243770000000462605971720261297_" gradientUnits="userSpaceOnUse" x1="-10.7744" y1="154.439" x2="113.825" y2="91.0511" gradientTransform="matrix(0.9523 0.3316 -0.3388 0.9438 43.0282 -8.292)">
		<stop  offset="0.2347" style="stop-color:#ABD9E9;stop-opacity:0.4"/>
		<stop  offset="0.4432" style="stop-color:#8AB8D8;stop-opacity:0.6144"/>
		<stop  offset="0.8182" style="stop-color:#4575B4"/>
	</linearGradient>
	
		<polygon opacity="0.69" clip-path="url(#SVGID_00000120528271768748645460000012165238745619307148_)" fill="url(#SVGID_00000175318908904409243770000000462605971720261297_)" points="
		100.72,173.16 6,190.77 -14.94,78.13 79.78,60.53 	"/>
	
		<linearGradient id="SVGID_00000056409058973099329680000003483803433548941460_" gradientUnits="userSpaceOnUse" x1="-11.4411" y1="162.5534" x2="113.1583" y2="99.1655" gradientTransform="matrix(0.969 0.3285 -0.3485 0.9456 44.5571 -8.5762)">
		<stop  offset="0.2347" style="stop-color:#ABD9E9;stop-opacity:0.4"/>
		<stop  offset="0.4432" style="stop-color:#8AB8D8;stop-opacity:0.6144"/>
		<stop  offset="0.8182" style="stop-color:#4575B4"/>
	</linearGradient>
	
		<polygon opacity="0.69" clip-path="url(#SVGID_00000120528271768748645460000012165238745619307148_)" fill="url(#SVGID_00000056409058973099329680000003483803433548941460_)" points="
		99.22,180.25 2.66,198.2 -18.27,85.56 78.29,67.62 	"/>
	
		<linearGradient id="SVGID_00000134948590854360854000000004833012429493645982_" gradientUnits="userSpaceOnUse" x1="-17.5357" y1="175.3149" x2="107.0637" y2="111.927" gradientTransform="matrix(0.9952 0.3236 -0.3636 0.9484 47.5791 -9.1378)">
		<stop  offset="0.2347" style="stop-color:#ABD9E9;stop-opacity:0.4"/>
		<stop  offset="0.4432" style="stop-color:#8AB8D8;stop-opacity:0.6144"/>
		<stop  offset="0.8182" style="stop-color:#4575B4"/>
	</linearGradient>
	
		<polygon opacity="0.69" clip-path="url(#SVGID_00000120528271768748645460000012165238745619307148_)" fill="url(#SVGID_00000134948590854360854000000004833012429493645982_)" points="
		92.1,189.72 -7.34,208.2 -28.27,95.56 71.17,77.08 	"/>
	<g clip-path="url(#SVGID_00000120528271768748645460000012165238745619307148_)">
		<g opacity="0.89">
			<g>
				<g>
					<path fill="#4575B4" stroke="#FFFFFF" stroke-width="1.0206" stroke-miterlimit="10" d="M5.88,60.21l1.04-2.56
						c0.93,0.45,1.93,0.76,2.88,0.58c1.25-0.23,2.02-1.02,2.2-2.38l0.23-1.88c-0.73,1.12-1.76,1.85-2.88,2.06
						c-1.82,0.34-3.38-0.62-3.85-3.18c-0.71-3.85,1.36-7.36,4.34-7.92c0.91-0.17,1.91,0.18,2.45,0.93l0.04-0.01l0.27-1.17l2.81-0.52
						l-0.15,10.76c-0.05,3.45-1.89,5.45-5.05,6.04C9.01,61.19,7.37,61.01,5.88,60.21z M11.89,51.4l0.01-3.09
						c-0.36-0.51-0.89-0.68-1.28-0.61C9.37,47.93,8.6,49.6,9,51.76c0.18,0.95,0.65,1.31,1.21,1.21
						C10.82,52.85,11.51,52.5,11.89,51.4z"/>
					<path fill="#4575B4" stroke="#FFFFFF" stroke-width="1.0206" stroke-miterlimit="10" d="M16.73,58.19l1.04-2.56
						c0.93,0.45,1.93,0.76,2.88,0.58c1.25-0.23,2.02-1.03,2.2-2.38l0.23-1.88c-0.73,1.12-1.76,1.85-2.88,2.06
						c-1.82,0.34-3.38-0.62-3.85-3.18c-0.71-3.85,1.36-7.36,4.34-7.92c0.91-0.17,1.91,0.18,2.45,0.93l0.04-0.01l0.27-1.17l2.81-0.52
						l-0.15,10.76c-0.05,3.45-1.89,5.45-5.05,6.04C19.86,59.18,18.22,58.99,16.73,58.19z M22.74,49.38l0.01-3.09
						c-0.36-0.51-0.89-0.69-1.28-0.61c-1.25,0.23-2.02,1.9-1.62,4.06c0.18,0.95,0.65,1.31,1.21,1.21
						C21.67,50.84,22.36,50.48,22.74,49.38z"/>
					<path fill="#4575B4" stroke="#FFFFFF" stroke-width="1.0206" stroke-miterlimit="10" d="M27.76,53.06l0.23-15.61l3.46-0.64
						l-0.06,3.28l-0.19,2.09l0.04-0.01c0.77-0.9,1.73-1.53,2.72-1.71c1.9-0.35,3.29,0.86,3.77,3.42c0.76,4.11-1.4,7.86-4.38,8.42
						c-0.91,0.17-1.87-0.19-2.41-0.94l-0.04,0.01l-0.27,1.17L27.76,53.06z M31.33,45.1l-0.05,3.81c0.32,0.52,0.84,0.69,1.28,0.61
						c1.25-0.23,2.11-2.14,1.66-4.56c-0.21-1.12-0.69-1.53-1.29-1.41C32.36,43.66,31.68,44.05,31.33,45.1z"/>
					<path fill="#4575B4" stroke="#FFFFFF" stroke-width="1.0206" stroke-miterlimit="10" d="M38.95,48.79
						c-0.08-0.43-0.12-0.87-0.1-1.5l0.16-11.88l3.46-0.64l-0.18,12.02c0,0.23,0.01,0.31,0.03,0.42c0.08,0.41,0.32,0.5,0.53,0.46
						c0.13-0.02,0.22-0.04,0.38-0.12l0.34,2.58c-0.36,0.2-0.95,0.44-1.72,0.59C40.08,51.04,39.22,50.26,38.95,48.79z"/>
					<path fill="#4575B4" stroke="#FFFFFF" stroke-width="1.0206" stroke-miterlimit="10" d="M48.31,37.79
						c2.64-0.49,3.93,1.19,4.35,3.44c0.2,1.08-0.01,2.37-0.12,2.71l-5.84,1.08c0.31,1.42,1.37,1.85,2.63,1.62
						c0.61-0.11,1.28-0.6,1.69-1.03l1.61,1.94c-0.75,0.77-2.04,1.54-3.81,1.87c-2.64,0.49-4.83-0.94-5.36-3.83
						C42.71,41.6,45.41,38.33,48.31,37.79z M49.86,42.29c0.01-0.18,0.01-0.45-0.04-0.71c-0.14-0.74-0.54-1.24-1.45-1.07
						c-0.82,0.15-1.57,0.92-1.79,2.39L49.86,42.29z"/>
					<path fill="#4575B4" stroke="#FFFFFF" stroke-width="1.0206" stroke-miterlimit="10" d="M53.76,37.04l2.81-0.52l0.26,1.38
						l0.09-0.02c0.83-1.05,1.9-2.05,3.28-2.31c1.77-0.33,2.73,0.48,3.07,2.34c0.09,0.47,0.13,1.05,0.12,1.59l-0.1,6.95l-3.46,0.64
						l0.09-6.5c0.01-0.41,0.04-0.72,0-0.98c-0.11-0.61-0.51-0.84-1.08-0.74c-0.61,0.11-1.05,0.6-1.68,1.56l-0.05,7.17l-3.46,0.64
						L53.76,37.04z"/>
					<path fill="#4575B4" stroke="#FFFFFF" stroke-width="1.0206" stroke-miterlimit="10" d="M71.03,32.72l0.02-3.27l3.46-0.64
						l-0.23,15.61l-2.81,0.52l-0.25-1.34l-0.04,0.01c-0.77,1.17-1.91,2.01-2.95,2.2c-1.9,0.35-3.29-0.86-3.77-3.42
						c-0.76-4.11,1.4-7.86,4.38-8.42c0.91-0.17,1.77,0.16,2.3,0.83l0.04-0.01L71.03,32.72z M70.9,40.93l0.05-3.59
						c-0.36-0.51-0.93-0.68-1.32-0.6c-1.25,0.23-2.11,2.14-1.66,4.56c0.21,1.12,0.69,1.53,1.29,1.41
						C69.82,42.6,70.51,42.21,70.9,40.93z"/>
				</g>
			</g>
		</g>
		<g>
			<g>
				<g>
					<path fill="#4575B4" d="M5.88,60.21l1.04-2.56c0.93,0.45,1.93,0.76,2.88,0.58c1.25-0.23,2.02-1.02,2.2-2.38l0.23-1.88
						c-0.73,1.12-1.76,1.85-2.88,2.06c-1.82,0.34-3.38-0.62-3.85-3.18c-0.71-3.85,1.36-7.36,4.34-7.92
						c0.91-0.17,1.91,0.18,2.45,0.93l0.04-0.01l0.27-1.17l2.81-0.52l-0.15,10.76c-0.05,3.45-1.89,5.45-5.05,6.04
						C9.01,61.19,7.37,61.01,5.88,60.21z M11.89,51.4l0.01-3.09c-0.36-0.51-0.89-0.68-1.28-0.61C9.37,47.93,8.6,49.6,9,51.76
						c0.18,0.95,0.65,1.31,1.21,1.21C10.82,52.85,11.51,52.5,11.89,51.4z"/>
					<path fill="#4575B4" d="M16.73,58.19l1.04-2.56c0.93,0.45,1.93,0.76,2.88,0.58c1.25-0.23,2.02-1.03,2.2-2.38l0.23-1.88
						c-0.73,1.12-1.76,1.85-2.88,2.06c-1.82,0.34-3.38-0.62-3.85-3.18c-0.71-3.85,1.36-7.36,4.34-7.92
						c0.91-0.17,1.91,0.18,2.45,0.93l0.04-0.01l0.27-1.17l2.81-0.52l-0.15,10.76c-0.05,3.45-1.89,5.45-5.05,6.04
						C19.86,59.18,18.22,58.99,16.73,58.19z M22.74,49.38l0.01-3.09c-0.36-0.51-0.89-0.69-1.28-0.61c-1.25,0.23-2.02,1.9-1.62,4.06
						c0.18,0.95,0.65,1.31,1.21,1.21C21.67,50.84,22.36,50.48,22.74,49.38z"/>
					<path fill="#4575B4" d="M27.76,53.06l0.23-15.61l3.46-0.64l-0.06,3.28l-0.19,2.09l0.04-0.01c0.77-0.9,1.73-1.53,2.72-1.71
						c1.9-0.35,3.29,0.86,3.77,3.42c0.76,4.11-1.4,7.86-4.38,8.42c-0.91,0.17-1.87-0.19-2.41-0.94l-0.04,0.01l-0.27,1.17
						L27.76,53.06z M31.33,45.1l-0.05,3.81c0.32,0.52,0.84,0.69,1.28,0.61c1.25-0.23,2.11-2.14,1.66-4.56
						c-0.21-1.12-0.69-1.53-1.29-1.41C32.36,43.66,31.68,44.05,31.33,45.1z"/>
					<path fill="#4575B4" d="M38.95,48.79c-0.08-0.43-0.12-0.87-0.1-1.5l0.16-11.88l3.46-0.64l-0.18,12.02
						c0,0.23,0.01,0.31,0.03,0.42c0.08,0.41,0.32,0.5,0.53,0.46c0.13-0.02,0.22-0.04,0.38-0.12l0.34,2.58
						c-0.36,0.2-0.95,0.44-1.72,0.59C40.08,51.04,39.22,50.26,38.95,48.79z"/>
					<path fill="#4575B4" d="M48.31,37.79c2.64-0.49,3.93,1.19,4.35,3.44c0.2,1.08-0.01,2.37-0.12,2.71l-5.84,1.08
						c0.31,1.42,1.37,1.85,2.63,1.62c0.61-0.11,1.28-0.6,1.69-1.03l1.61,1.94c-0.75,0.77-2.04,1.54-3.81,1.87
						c-2.64,0.49-4.83-0.94-5.36-3.83C42.71,41.6,45.41,38.33,48.31,37.79z M49.86,42.29c0.01-0.18,0.01-0.45-0.04-0.71
						c-0.14-0.74-0.54-1.24-1.45-1.07c-0.82,0.15-1.57,0.92-1.79,2.39L49.86,42.29z"/>
					<path fill="#4575B4" d="M53.76,37.04l2.81-0.52l0.26,1.38l0.09-0.02c0.83-1.05,1.9-2.05,3.28-2.31
						c1.77-0.33,2.73,0.48,3.07,2.34c0.09,0.47,0.13,1.05,0.12,1.59l-0.1,6.95l-3.46,0.64l0.09-6.5c0.01-0.41,0.04-0.72,0-0.98
						c-0.11-0.61-0.51-0.84-1.08-0.74c-0.61,0.11-1.05,0.6-1.68,1.56l-0.05,7.17l-3.46,0.64L53.76,37.04z"/>
					<path fill="#4575B4" d="M71.03,32.72l0.02-3.27l3.46-0.64l-0.23,15.61l-2.81,0.52l-0.25-1.34l-0.04,0.01
						c-0.77,1.17-1.91,2.01-2.95,2.2c-1.9,0.35-3.29-0.86-3.77-3.42c-0.76-4.11,1.4-7.86,4.38-8.42c0.91-0.17,1.77,0.16,2.3,0.83
						l0.04-0.01L71.03,32.72z M70.9,40.93l0.05-3.59c-0.36-0.51-0.93-0.68-1.32-0.6c-1.25,0.23-2.11,2.14-1.66,4.56
						c0.21,1.12,0.69,1.53,1.29,1.41C69.82,42.6,70.51,42.21,70.9,40.93z"/>
				</g>
			</g>
		</g>
	</g>
</g>
</svg>
